<?xml version="1.0" standalone="no"?>
<!DOCTYPE svg PUBLIC "-//W3C//DTD SVG 20010904//EN"
 "http://www.w3.org/TR/2001/REC-SVG-20010904/DTD/svg10.dtd">
<svg version="1.0" xmlns="http://www.w3.org/2000/svg"
 width="500.000000pt" height="132.000000pt" viewBox="0 0 500.000000 132.000000"
 preserveAspectRatio="xMidYMid meet">

<g transform="translate(0.000000,132.000000) scale(0.100000,-0.100000)"
fill="#000000" stroke="none">
<path d="M38 1291 l-33 -29 -3 -596 -2 -595 29 -33 29 -33 2442 0 2442 0 29
33 29 33 -2 595 -3 596 -33 29 -32 29 -2430 0 -2430 0 -32 -29z m328 -163 c16
-12 73 -64 127 -115 161 -154 201 -175 257 -136 14 9 82 72 152 139 70 67 136
125 148 129 30 10 70 -19 70 -51 0 -19 -41 -67 -167 -198 -93 -95 -185 -187
-205 -205 -21 -18 -38 -41 -38 -51 0 -26 49 -88 166 -211 122 -128 144 -160
144 -212 0 -80 -48 -127 -130 -127 -56 0 -57 1 -225 160 -154 146 -180 156
-256 93 -24 -20 -94 -85 -155 -145 -72 -70 -119 -108 -132 -108 -28 0 -62 34
-62 61 0 14 71 92 208 230 139 140 206 215 204 226 -6 29 -41 72 -161 198
-135 143 -151 166 -151 224 0 37 6 49 39 82 35 35 44 39 88 39 36 0 58 -6 79
-22z m1384 -453 l0 -365 -75 0 -75 0 0 365 0 365 75 0 75 0 0 -365z m560 0 l0
-365 -75 0 c-75 0 -75 0 -75 27 l0 26 -22 -21 c-74 -68 -215 -52 -285 32 -78
95 -71 231 16 317 72 73 169 88 249 39 18 -11 35 -20 37 -20 3 0 5 74 5 165
l0 165 75 0 75 0 0 -365z m2070 0 l0 -365 -75 0 c-68 0 -75 2 -75 20 0 19 -2
18 -47 -6 -40 -21 -58 -25 -109 -22 -77 5 -132 38 -171 105 -23 39 -27 59 -27
117 -1 97 42 173 119 214 46 24 141 21 193 -5 l42 -23 0 165 0 165 75 0 75 0
0 -365z m-2860 265 l0 -70 -120 0 -120 0 0 -70 0 -70 115 0 115 0 0 -70 0 -70
-115 0 -115 0 0 -70 0 -70 120 0 120 0 0 -70 0 -70 -200 0 -200 0 0 350 0 350
200 0 200 0 0 -70z m1224 -208 c50 -23 104 -75 122 -119 20 -48 18 -137 -5
-182 -47 -91 -137 -136 -260 -129 -67 4 -88 10 -128 34 -150 93 -146 298 7
383 24 13 57 28 74 32 45 12 142 2 190 -19z m529 17 c20 -5 37 -14 37 -20 0
-8 -47 -108 -55 -117 -2 -2 -21 2 -44 9 -49 15 -93 0 -110 -37 -6 -14 -11 -78
-11 -149 l0 -125 -75 0 -75 0 0 215 0 215 75 0 c75 0 75 0 75 -27 l0 -27 29
28 c44 42 91 53 154 35z m354 -19 c41 -24 43 -24 43 -5 0 12 15 15 75 15 l75
0 0 -215 0 -215 -75 0 c-75 0 -75 0 -75 27 l0 26 -22 -21 c-32 -29 -71 -42
-126 -42 -149 1 -245 146 -201 304 14 50 83 123 134 142 50 18 126 11 172 -16z
m1150 15 c111 -33 175 -111 175 -214 1 -139 -101 -231 -258 -231 -156 0 -256
89 -256 230 0 104 67 186 179 216 64 17 100 17 160 -1z"/>
<path d="M2011 616 c-55 -30 -67 -106 -25 -155 22 -27 32 -31 74 -31 42 0 52
4 74 31 73 86 -25 209 -123 155z"/>
<path d="M4064 596 c-33 -33 -36 -40 -31 -79 8 -57 43 -87 101 -87 60 0 96 36
96 96 0 58 -30 93 -87 101 -39 5 -46 2 -79 -31z"/>
<path d="M2554 596 c-33 -33 -36 -40 -31 -79 8 -57 43 -87 101 -87 60 0 96 36
96 96 0 58 -30 93 -87 101 -39 5 -46 2 -79 -31z"/>
<path d="M3521 616 c-55 -30 -67 -106 -25 -155 22 -27 32 -31 74 -31 42 0 52
4 74 31 73 86 -25 209 -123 155z"/>
<path d="M4655 621 c-50 -21 -73 -82 -51 -135 17 -41 42 -56 91 -56 49 0 74
15 91 55 36 87 -45 171 -131 136z"/>
</g>
</svg>
